<svg width="47" height="47" viewBox="0 0 47 47" fill="none" xmlns="http://www.w3.org/2000/svg">
<circle opacity="0.5" cx="23.5" cy="23.5" r="23.5" fill="#FFE6D2"/>
<g clip-path="url(#clip0_0_1064)">
<path d="M34.9716 12.7919C34.9197 11.8386 34.1615 11.0804 33.2081 11.0284C31.2845 10.9233 27.5202 11.0256 23.9208 12.8873C22.0858 13.8364 20.1452 15.4456 18.5965 17.3022C18.5774 17.3251 18.5589 17.3481 18.5399 17.371L15.0253 17.6425C14.4467 17.6872 13.9314 17.9905 13.6115 18.4744L11.2136 22.1012C10.9709 22.4683 10.9324 22.9276 11.1103 23.3299C11.2884 23.7323 11.6542 24.0127 12.089 24.0801L15.0501 24.5387C15.0396 24.5962 15.0291 24.6538 15.0195 24.7113C14.921 25.301 15.1163 25.9073 15.5422 26.3331L19.6669 30.4578C20.02 30.8109 20.4971 31.0056 20.986 31.0056C21.0867 31.0056 21.188 30.9973 21.2887 30.9805C21.3463 30.9709 21.4038 30.9604 21.4614 30.9499L21.92 33.9111C21.9874 34.3459 22.2678 34.7117 22.67 34.8897C22.8374 34.9638 23.0146 35.0003 23.1909 35.0003C23.4386 35.0003 23.6845 34.9282 23.8988 34.7865L27.5256 32.3886C28.0096 32.0686 28.3128 31.5533 28.3574 30.9748L28.6289 27.4602C28.6518 27.4412 28.6749 27.4227 28.6978 27.4036C30.5544 25.8549 32.1636 23.9143 33.1127 22.0793C34.9745 18.4797 35.0766 14.7154 34.9716 12.7919ZM26.75 31.2155L23.2808 33.5092L22.8338 30.6234C24.3 30.1923 25.7505 29.5018 27.1323 28.5768L26.9555 30.8664C26.9444 31.0093 26.8695 31.1365 26.75 31.2155ZM20.6612 29.4635L16.5365 25.3388C16.4313 25.2335 16.3827 25.0856 16.4065 24.9432C16.5291 24.2099 16.7197 23.5119 16.9556 22.8543L23.1444 29.0431C22.3546 29.326 21.6472 29.4948 21.0568 29.5935C20.9142 29.6172 20.7665 29.5687 20.6612 29.4635ZM15.1336 19.0446L17.4231 18.8677C16.4981 20.2496 15.8076 21.7 15.3765 23.1663L12.4907 22.7193L14.7845 19.25C14.8635 19.1305 14.9908 19.0556 15.1336 19.0446ZM27.7971 26.3236C26.6612 27.2711 25.5585 27.9564 24.5422 28.4523L17.5475 21.4576C18.197 20.1308 18.9898 19.026 19.6764 18.203C21.1096 16.4848 22.8921 15.0026 24.5669 14.1363C27.8704 12.4276 31.3509 12.3356 33.1316 12.4325C33.3673 12.4453 33.5547 12.6328 33.5675 12.8685C33.6646 14.6492 33.5724 18.1297 31.8637 21.4332C30.9975 23.108 29.5153 24.8904 27.7971 26.3236Z" fill="#FFA155"/>
<path d="M27.44 22.0739C28.3401 22.0738 29.2406 21.7311 29.9259 21.0458C30.5899 20.3819 30.9555 19.499 30.9555 18.56C30.9555 17.621 30.5898 16.7382 29.9259 16.0742C28.5551 14.7034 26.3248 14.7035 24.9542 16.0742C24.2902 16.7382 23.9245 17.621 23.9245 18.56C23.9245 19.499 24.2902 20.3819 24.9542 21.0458C25.6396 21.7312 26.5396 22.0739 27.44 22.0739ZM25.9485 17.0685C26.3597 16.6573 26.8998 16.4517 27.4399 16.4517C27.9801 16.4517 28.5203 16.6573 28.9315 17.0685C29.3298 17.4669 29.5492 17.9966 29.5492 18.56C29.5492 19.1234 29.3298 19.6531 28.9315 20.0515C28.1091 20.8739 26.7708 20.8739 25.9484 20.0515C25.55 19.6531 25.3306 19.1234 25.3306 18.56C25.3306 17.9966 25.5501 17.4669 25.9485 17.0685Z" fill="#444CFC"/>
<path d="M11.7173 30.7783C11.8973 30.7783 12.0772 30.7097 12.2145 30.5723L14.5101 28.2767C14.7847 28.0021 14.7847 27.557 14.5101 27.2824C14.2355 27.0078 13.7903 27.0078 13.5157 27.2824L11.2202 29.578C10.9456 29.8526 10.9456 30.2977 11.2202 30.5723C11.3574 30.7096 11.5374 30.7783 11.7173 30.7783Z" fill="#FFA155"/>
<path d="M16.6138 29.3861C16.3393 29.1115 15.8941 29.1115 15.6195 29.3861L11.206 33.7996C10.9314 34.0742 10.9314 34.5194 11.206 34.794C11.3433 34.9313 11.5232 34.9999 11.7032 34.9999C11.8831 34.9999 12.0631 34.9313 12.2003 34.794L16.6138 30.3805C16.8884 30.1059 16.8884 29.6607 16.6138 29.3861Z" fill="#FFA155"/>
<path d="M17.7233 31.4901L15.4277 33.7857C15.1531 34.0603 15.1531 34.5055 15.4277 34.7801C15.565 34.9174 15.7449 34.9861 15.9248 34.9861C16.1047 34.9861 16.2847 34.9174 16.422 34.7801L18.7176 32.4845C18.9922 32.2099 18.9922 31.7647 18.7176 31.4901C18.4431 31.2155 17.9978 31.2155 17.7233 31.4901Z" fill="#FFA155"/>
</g>
<defs>
<clipPath id="clip0_0_1064">
<rect width="24" height="24" fill="white" transform="translate(11 11)"/>
</clipPath>
</defs>
</svg>
