<svg width="47" height="47" viewBox="0 0 47 47" fill="none" xmlns="http://www.w3.org/2000/svg">
<circle opacity="0.5" cx="23.5" cy="23.5" r="23.5" fill="#FFE6D2"/>
<path fill-rule="evenodd" clip-rule="evenodd" d="M17.9633 17.9956H16.9963C16.9753 17.9956 16.9558 18.0152 16.9558 18.036V20.7357C16.9558 20.7566 16.9753 20.7759 16.9963 20.7759H17.9633V17.9956ZM29.3258 16.7868H30.2928C30.981 16.7868 31.5418 17.3477 31.5418 18.036V20.7356C31.5418 21.4238 30.981 21.9846 30.2928 21.9846H28.6222C28.1245 22.7756 27.4218 23.4666 26.6664 24.0111C26.6664 24.9805 27.3688 25.7721 28.3587 25.7721C31.2499 25.7721 33.5968 26.5344 33.5968 30.0431C33.5968 30.3769 33.3262 30.6475 32.9923 30.6475C32.6587 30.6475 32.3879 30.3769 32.3879 30.0431C32.3879 27.2287 30.5223 26.9808 28.3587 26.9808C27.879 26.9808 27.4259 26.8634 27.0267 26.656L23.7985 28.9935C23.5923 29.1495 23.3005 29.1604 23.0802 29.0007L20.0052 26.774C19.6727 26.9074 19.3098 26.9808 18.9303 26.9808C16.7669 26.9808 14.9011 27.2287 14.9011 30.0431C14.9011 30.3769 14.6304 30.6475 14.2967 30.6475C13.963 30.6475 13.6922 30.3769 13.6922 30.0431C13.6922 26.5344 16.0392 25.7721 18.9303 25.7721C19.8192 25.7721 20.5531 25.0787 20.6179 24.2055C19.7561 23.6396 18.9507 22.8803 18.4318 21.9846H16.9963C16.3081 21.9846 15.7472 21.4238 15.7472 20.7356V18.036C15.7472 17.3477 16.308 16.7868 16.9963 16.7868H17.9633V15.9245C17.9633 13.0185 20.3106 10.6221 23.2103 10.6221H24.0787C26.9782 10.6221 29.3258 13.0188 29.3258 15.9247V16.7868ZM28.117 20.7764V16.8584C26.4764 17.0694 24.8271 16.6059 23.5412 15.5748C22.3471 16.5295 20.7972 17.0361 19.1722 16.8813V20.7C19.4349 21.5392 20.0724 22.2797 20.8071 22.8567C21.8089 23.6435 22.947 24.1083 23.5702 24.1083C24.2021 24.1083 25.4823 23.5195 26.556 22.5583C26.7567 22.379 26.948 22.1871 27.1244 21.9849H25.2561C25.0725 22.2294 24.7799 22.3877 24.4503 22.3877C23.8939 22.3877 23.4431 21.9366 23.4431 21.3805C23.4431 20.824 23.8939 20.373 24.4503 20.373C24.7799 20.373 25.0725 20.5313 25.2561 20.776C26.0579 20.7759 27.394 20.7764 28.117 20.7764ZM30.2928 17.9956H29.3258V20.7759H30.2928C30.3137 20.7759 30.3331 20.7566 30.3331 20.7356V18.036C30.3331 18.0152 30.3137 17.9956 30.2928 17.9956ZM28.1072 15.6418C28.0017 14.0874 27.0324 12.7578 25.6729 12.1632C25.4579 13.1316 25.0156 14.0013 24.4114 14.7236C25.4646 15.5149 26.7967 15.8493 28.1072 15.6418ZM24.5057 11.8538C24.3654 11.8388 24.223 11.831 24.0787 11.831H23.2103C21.0549 11.831 19.3104 13.5438 19.18 15.6696C21.6796 15.9603 23.9876 14.291 24.5057 11.8538ZM21.0596 26.0473L23.4344 27.7669L26.0694 25.8589C25.81 25.5256 25.6214 25.1347 25.5267 24.709C24.7636 25.0994 24.0474 25.3168 23.5702 25.3168C23.0987 25.3168 22.4373 25.142 21.7347 24.8226C21.6115 25.2861 21.3761 25.7049 21.0596 26.0473Z" fill="#FFA155"/>
<path d="M14.6252 32.5215C19.0366 36.0042 25.0733 38.326 32.7352 32.5215" stroke="#444CFC" stroke-width="1.5" stroke-linecap="round"/>
</svg>
