<svg width="187" height="106" viewBox="0 0 187 106" fill="none" xmlns="http://www.w3.org/2000/svg">
<path fill-rule="evenodd" clip-rule="evenodd" d="M39.3923 37.524V42.029C36.5049 42.029 33.7358 43.1849 31.6941 45.2424C29.6525 47.2998 28.5055 50.0904 28.5055 53C28.5055 55.9097 29.6525 58.7002 31.6941 60.7577C33.7358 62.8152 36.5049 63.971 39.3923 63.971V68.476H25.2973V37.524H39.3923ZM39.3923 63.971L39.3922 42.0291C42.2796 42.0291 45.0487 43.1849 47.0903 45.2424C49.132 47.2998 50.279 50.0904 50.279 53.0001C50.279 55.9097 49.132 58.7003 47.0903 60.7577C45.0487 62.8152 42.2796 63.9711 39.3923 63.971ZM61.3446 44.785H58.189V60.102H61.3446V44.785ZM64.0446 51.76C63.4364 52.6758 63.1117 53.753 63.1117 54.855C63.1019 55.5859 63.237 56.3114 63.509 56.9889C63.7811 57.6665 64.1847 58.2825 64.6961 58.8008C65.2075 59.3192 65.8164 59.7294 66.4872 60.0074C67.158 60.2854 67.8771 60.4257 68.6024 60.42C69.696 60.4263 70.7667 60.1053 71.679 59.4976C72.5913 58.89 73.304 58.0231 73.7268 57.0068C74.1496 55.9905 74.2635 54.8706 74.054 53.789C73.8445 52.7074 73.321 51.7128 72.55 50.9313C71.779 50.1499 70.7951 49.6167 69.723 49.3994C68.6509 49.1821 67.539 49.2904 66.528 49.7106C65.5171 50.1309 64.6528 50.8441 64.0446 51.76ZM70.5872 53.5301C70.8582 53.9191 71.0093 54.3799 71.0217 54.855H71.0007C71.0181 55.1782 70.9692 55.5015 70.857 55.8047C70.7448 56.108 70.5717 56.3847 70.3486 56.6174C70.1255 56.8502 69.8572 57.0341 69.5603 57.1577C69.2635 57.2812 68.9446 57.3417 68.6235 57.3354C68.1519 57.3353 67.6908 57.195 67.2979 56.9321C66.905 56.6693 66.5977 56.2955 66.4144 55.8576C66.2312 55.4197 66.1802 54.937 66.2677 54.47C66.3553 54.003 66.5775 53.5724 66.9066 53.232C67.2357 52.8916 67.6571 52.6566 68.1181 52.5563C68.5791 52.456 69.0592 52.4948 69.4983 52.668C69.9375 52.8412 70.3163 53.1411 70.5872 53.5301ZM86.5788 49.608V59.5826C86.5788 63.1018 83.844 64.5964 81.0776 64.5964C80.1018 64.6771 79.1231 64.4817 78.2515 64.0323C77.3799 63.5828 76.6502 62.8971 76.1443 62.0524L78.8056 60.5048C79.0212 60.9429 79.3642 61.3045 79.7889 61.5412C80.2136 61.7779 80.6999 61.8786 81.1828 61.8298C81.4904 61.868 81.8026 61.8372 82.0971 61.7396C82.3915 61.6421 82.661 61.4801 82.8861 61.2654C83.1112 61.0507 83.2865 60.7885 83.3993 60.4976C83.5122 60.2067 83.5599 59.8942 83.5389 59.5826V58.618C83.1717 59.0666 82.7058 59.4229 82.1781 59.6584C81.6504 59.8939 81.0755 60.0023 80.4991 59.9748C79.1042 59.9748 77.7665 59.4164 76.7802 58.4224C75.7939 57.4285 75.2397 56.0804 75.2397 54.6748C75.2397 53.2691 75.7939 51.9211 76.7802 50.9271C77.7665 49.9332 79.1042 49.3748 80.4991 49.3748C81.0755 49.3473 81.6504 49.4556 82.1781 49.6912C82.7058 49.9267 83.1717 50.2829 83.5389 50.7316V49.6716L86.5788 49.608ZM83.5389 54.643C83.5599 54.1358 83.4299 53.634 83.1656 53.2019C82.9012 52.7698 82.5147 52.4273 82.0557 52.2184C81.5966 52.0095 81.086 51.9438 80.5896 52.0296C80.0932 52.1155 79.6336 52.349 79.27 52.7002C78.9063 53.0514 78.6552 53.5042 78.549 54.0004C78.4427 54.4965 78.4862 55.0134 78.6738 55.4844C78.8614 55.9555 79.1845 56.3593 79.6016 56.6438C80.0188 56.9283 80.5108 57.0805 81.0145 57.081C81.3431 57.1048 81.6731 57.059 81.9831 56.9463C82.293 56.8337 82.5761 56.6568 82.814 56.427C83.0519 56.1973 83.2394 55.9198 83.3642 55.6125C83.4891 55.3052 83.5486 54.9749 83.5389 54.643ZM89.2878 51.7621C88.6805 52.6775 88.3564 53.7539 88.3564 54.855C88.3479 55.5872 88.4847 56.3138 88.7586 56.9922C89.0324 57.6705 89.4379 58.2869 89.9513 58.8052C90.4647 59.3235 91.0755 59.7333 91.7481 60.0106C92.4207 60.2879 93.1415 60.4271 93.8681 60.42C94.9608 60.4221 96.0295 60.0975 96.939 59.4873C97.8485 58.877 98.558 58.0086 98.9775 56.992C99.3971 55.9753 99.508 54.856 99.2961 53.7758C99.0842 52.6956 98.5591 51.703 97.7872 50.9237C97.0153 50.1443 96.0314 49.6133 94.9599 49.3977C93.8884 49.1821 92.7775 49.2917 91.7678 49.7126C90.7581 50.1335 89.8951 50.8467 89.2878 51.7621ZM95.8311 53.529C96.1025 53.9182 96.254 54.3794 96.2664 54.855H96.2559C96.2733 55.1781 96.2244 55.5014 96.1122 55.8047C96 56.1079 95.8269 56.3846 95.6038 56.6174C95.3807 56.8502 95.1124 57.0341 94.8155 57.1576C94.5187 57.2812 94.1998 57.3417 93.8787 57.3354C93.4066 57.3373 92.9445 57.1988 92.5502 56.9372C92.1559 56.6756 91.847 56.3026 91.6622 55.8649C91.4774 55.4272 91.4248 54.9442 91.5112 54.4765C91.5975 54.0088 91.8189 53.5772 92.1476 53.2358C92.4763 52.8944 92.8977 52.6583 93.3589 52.5571C93.8202 52.4559 94.3008 52.4942 94.7406 52.667C95.1803 52.8399 95.5597 53.1398 95.8311 53.529ZM100.842 46.799C100.842 46.4258 100.952 46.061 101.158 45.7507C101.363 45.4404 101.656 45.1986 101.998 45.0558C102.34 44.913 102.716 44.8756 103.08 44.9484C103.443 45.0212 103.776 45.2009 104.038 45.4648C104.3 45.7287 104.478 46.0649 104.551 46.4309C104.623 46.7969 104.586 47.1763 104.444 47.521C104.302 47.8658 104.062 48.1605 103.755 48.3678C103.447 48.5751 103.085 48.6858 102.714 48.6858C102.219 48.6803 101.746 48.4797 101.396 48.127C101.047 47.7744 100.848 47.2977 100.842 46.799ZM101.147 49.608H104.303V60.102H101.147V49.608ZM117.509 56.9091C117.742 56.251 117.844 55.5529 117.809 54.855C117.84 54.1597 117.735 53.4651 117.499 52.8107C117.264 52.1563 116.903 51.5551 116.437 51.0412C115.971 50.5274 115.409 50.1111 114.784 49.8161C114.158 49.5211 113.481 49.3531 112.791 49.3218C112.204 49.2803 111.615 49.3732 111.069 49.5935C110.522 49.8137 110.032 50.1557 109.636 50.5938V49.608H106.48V64.3208H109.636V59.1374C110.032 59.5768 110.521 59.9204 111.068 60.1425C111.614 60.3646 112.203 60.4594 112.791 60.42C113.484 60.3888 114.164 60.2198 114.791 59.9228C115.419 59.6258 115.982 59.2066 116.449 58.6894C116.915 58.1722 117.275 57.5671 117.509 56.9091ZM114.203 53.4819C114.484 53.885 114.641 54.3627 114.653 54.855C114.677 55.1918 114.63 55.5299 114.515 55.8471C114.401 56.1643 114.221 56.4535 113.987 56.6957C113.754 56.9379 113.472 57.1277 113.161 57.2525C112.85 57.3774 112.516 57.4345 112.181 57.4202C111.692 57.4222 111.214 57.2787 110.806 57.0078C110.398 56.7369 110.078 56.3506 109.887 55.8974C109.696 55.4442 109.641 54.9442 109.731 54.4601C109.821 53.9759 110.05 53.5292 110.39 53.1759C110.731 52.8226 111.167 52.5784 111.645 52.474C112.122 52.3695 112.62 52.4094 113.075 52.5887C113.53 52.7681 113.923 53.0787 114.203 53.4819ZM127.412 56.9538C127.412 59.3706 125.308 60.3988 123.078 60.3988C122.169 60.4813 121.256 60.287 120.457 59.8411C119.658 59.3951 119.01 58.718 118.597 57.8972L121.311 56.3496C121.419 56.7278 121.652 57.0574 121.972 57.2832C122.291 57.5089 122.678 57.6172 123.068 57.5898C123.815 57.5898 124.193 57.3566 124.193 56.9326C124.193 56.5161 123.528 56.3296 122.676 56.0911C121.166 55.6681 119.071 55.0813 119.071 52.7562C119.071 50.4666 120.985 49.3218 123.152 49.3218C123.976 49.2846 124.794 49.473 125.52 49.8668C126.246 50.2605 126.852 50.8451 127.275 51.5584L124.561 53C124.442 52.7265 124.246 52.4939 123.997 52.3303C123.749 52.1666 123.459 52.0789 123.162 52.0778C122.616 52.0778 122.289 52.2898 122.289 52.6608C122.289 53.0936 122.947 53.2694 123.79 53.4951C125.302 53.8994 127.412 54.4639 127.412 56.9538ZM138.846 60.102V49.608H135.732V55.385C135.732 56.8266 134.933 57.505 133.797 57.505C133.548 57.5201 133.298 57.4804 133.065 57.3888C132.833 57.2972 132.623 57.1558 132.45 56.9744C132.277 56.793 132.145 56.5758 132.063 56.338C131.982 56.1002 131.952 55.8474 131.977 55.597V49.608H128.821V56.074C128.821 58.9042 130.62 60.42 132.724 60.42C133.285 60.4521 133.846 60.3509 134.361 60.1244C134.876 59.8979 135.332 59.5526 135.69 59.1162V60.102H138.846ZM156.727 53.6572V60.102H153.572V53.9328C153.572 52.8728 153.077 52.2156 152.078 52.2156C151.079 52.2156 150.448 52.947 150.448 54.1872V60.102H147.292V53.9328C147.292 52.8728 146.798 52.2156 145.798 52.2156C144.799 52.2156 144.168 52.947 144.168 54.1872V60.102H141.013V49.608H144.168V50.5726C144.495 50.1464 144.922 49.8089 145.41 49.5905C145.899 49.3722 146.433 49.2798 146.966 49.3218C147.5 49.2937 148.031 49.406 148.509 49.6476C148.987 49.8892 149.394 50.2518 149.69 50.6998C150.037 50.2317 150.496 49.8598 151.024 49.6188C151.552 49.3779 152.131 49.2757 152.709 49.3218C155.171 49.3218 156.727 51.039 156.727 53.6572ZM161.692 47.2124C161.692 48.5003 160.656 49.5444 159.378 49.5444C158.1 49.5444 157.064 48.5003 157.064 47.2124C157.064 45.9244 158.1 44.8804 159.378 44.8804C160.656 44.8804 161.692 45.9244 161.692 47.2124Z" fill="white" fill-opacity="0.45"/>
</svg>
