<svg width="186" height="105" viewBox="0 0 186 105" fill="none" xmlns="http://www.w3.org/2000/svg">
<path d="M43.3346 50.7896C42.9381 51.1899 42.6344 51.6731 42.4453 52.2047C42.2561 52.7363 42.1861 53.3032 42.2402 53.865L42.2214 53.8461C42.277 54.5075 42.1882 55.173 41.961 55.7964C41.7339 56.4197 41.3739 56.9858 40.9063 57.4551C40.4387 57.9244 39.8746 58.2856 39.2535 58.5135C38.6324 58.7415 37.9693 58.8307 37.3103 58.7748L37.3291 58.7937C36.5409 58.7201 35.7491 58.8923 35.0619 59.2867C34.3747 59.6812 33.8255 60.2788 33.4891 60.998C33.1527 61.7172 33.0455 62.5231 33.1822 63.3057C33.3188 64.0882 33.6927 64.8095 34.2527 65.371C34.8128 65.9326 35.5318 66.3071 36.3117 66.4436C37.0916 66.58 37.8944 66.4717 38.6108 66.1334C39.3271 65.7952 39.9221 65.2434 40.3145 64.5534C40.707 63.8634 40.8778 63.0687 40.8037 62.2776L40.8236 62.2965C40.768 61.6352 40.8568 60.9696 41.084 60.3463C41.3111 59.723 41.671 59.1569 42.1387 58.6876C42.6063 58.2183 43.1703 57.8571 43.7914 57.6291C44.4125 57.4012 45.0757 57.312 45.7347 57.3678L45.7148 57.3489C46.3587 57.4071 47.0068 57.3011 47.5991 57.0409C48.1913 56.7807 48.7085 56.3747 49.1028 55.8605C49.4971 55.3462 49.7556 54.7405 49.8544 54.0993C49.9533 53.4581 49.8893 52.8022 49.6683 52.1924C49.4473 51.5827 49.0766 51.0388 48.5904 50.6111C48.1042 50.1835 47.5183 49.8859 46.8869 49.746C46.2556 49.6061 45.5994 49.6284 44.9789 49.8108C44.3585 49.9933 43.794 50.3299 43.3377 50.7896H43.3346Z" fill="white" fill-opacity="0.45"/>
<path d="M35.6164 56.3178L35.5965 56.2989C36.1566 56.3555 36.7222 56.2865 37.2525 56.0969C37.7827 55.9073 38.2644 55.6018 38.6626 55.2024C39.0608 54.8031 39.3656 54.32 39.5549 53.788C39.7443 53.2559 39.8134 52.6883 39.7574 52.1262L39.7773 52.1451C39.7217 51.4837 39.8105 50.8182 40.0377 50.1949C40.2648 49.5715 40.6247 49.0055 41.0924 48.5362C41.56 48.0669 42.124 47.7056 42.7451 47.4777C43.3662 47.2497 44.0294 47.1606 44.6884 47.2164L44.6685 47.1975C45.4568 47.2718 46.2488 47.1002 46.9364 46.7062C47.624 46.3122 48.1738 45.7149 48.5107 44.9957C48.8476 44.2766 48.9553 43.4707 48.819 42.6879C48.6827 41.9052 48.3092 41.1836 47.7493 40.6217C47.1894 40.0598 46.4705 39.685 45.6905 39.5482C44.9105 39.4115 44.1075 39.5195 43.3909 39.8576C42.6744 40.1958 42.0792 40.7475 41.6866 41.4376C41.294 42.1276 41.123 42.9224 41.1971 43.7136L41.1782 43.6936C41.234 44.355 41.1453 45.0207 40.9182 45.6441C40.6912 46.2675 40.3312 46.8336 39.8636 47.303C39.3959 47.7723 38.8318 48.1335 38.2106 48.3614C37.5894 48.5893 36.9262 48.6783 36.2671 48.6223L36.286 48.6423C35.7259 48.5857 35.1602 48.6546 34.63 48.8443C34.0997 49.0339 33.6181 49.3394 33.2199 49.7387C32.8217 50.1381 32.5169 50.6212 32.3275 51.1532C32.1382 51.6852 32.069 52.2529 32.125 52.815L32.1062 52.7961C32.1616 53.4574 32.0727 54.1229 31.8455 54.7461C31.6183 55.3693 31.2583 55.9353 30.7907 56.4046C30.3231 56.8739 29.7592 57.2351 29.1382 57.4631C28.5172 57.6911 27.854 57.7804 27.1951 57.7248L27.2139 57.7437C26.4256 57.6694 25.6336 57.841 24.946 58.235C24.2584 58.629 23.7087 59.2263 23.3718 59.9454C23.0349 60.6645 22.9272 61.4704 23.0634 62.2532C23.1997 63.036 23.5732 63.7576 24.1331 64.3195C24.693 64.8813 25.412 65.2562 26.192 65.393C26.972 65.5297 27.775 65.4216 28.4915 65.0835C29.2081 64.7454 29.8032 64.1937 30.1959 63.5036C30.5885 62.8136 30.7594 62.0187 30.6854 61.2276L30.7053 61.2465C30.6496 60.5851 30.7385 59.9196 30.9656 59.2963C31.1928 58.6729 31.5527 58.1069 32.0203 57.6376C32.488 57.1683 33.052 56.807 33.6731 56.5791C34.2942 56.3511 34.9574 56.262 35.6164 56.3178Z" fill="white" fill-opacity="0.45"/>
<path d="M28.6045 54.2104C29.001 53.8101 29.3046 53.327 29.4936 52.7953C29.6826 52.2637 29.7523 51.6968 29.6978 51.135L29.7177 51.1539C29.662 50.4923 29.7509 49.8266 29.9781 49.2031C30.2054 48.5796 30.5655 48.0134 31.0334 47.5441C31.5013 47.0747 32.0656 46.7136 32.6869 46.4858C33.3083 46.258 33.9717 46.169 34.6308 46.2252L34.611 46.2063C35.399 46.2804 36.1907 46.1087 36.878 45.7147C37.5652 45.3207 38.1147 44.7235 38.4514 44.0047C38.7881 43.2858 38.8957 42.4802 38.7594 41.6977C38.6232 40.9152 38.2498 40.1939 37.6901 39.6322C37.1304 39.0705 36.4117 38.6958 35.632 38.559C34.8523 38.4223 34.0496 38.5303 33.3333 38.8682C32.6169 39.2061 32.0219 39.7575 31.6293 40.4473C31.2367 41.137 31.0657 41.9315 31.1395 42.7224L31.1207 42.7035C31.1763 43.3648 31.0875 44.0304 30.8603 44.6537C30.6332 45.277 30.2732 45.8431 29.8056 46.3124C29.338 46.7817 28.7739 47.1429 28.1529 47.3709C27.5318 47.5988 26.8686 47.688 26.2096 47.6322L26.2284 47.6511C25.5845 47.5931 24.9365 47.6992 24.3443 47.9595C23.7522 48.2199 23.2351 48.626 22.8409 49.1402C22.4468 49.6545 22.1884 50.2603 22.0897 50.9015C21.9909 51.5427 22.055 52.1985 22.2761 52.8082C22.4971 53.4179 22.8679 53.9617 23.3542 54.3893C23.8404 54.8169 24.4263 55.1143 25.0576 55.2542C25.6889 55.394 26.3451 55.3717 26.9655 55.1892C27.5859 55.0068 28.1503 54.6701 28.6065 54.2104H28.6045Z" fill="white" fill-opacity="0.45"/>
<path d="M61.0141 43.7377H64.1214V58.9134H61.0141V43.7377Z" fill="white" fill-opacity="0.45"/>
<path d="M65.8813 53.7169C65.8769 52.6264 66.1952 51.559 66.7957 50.6501C67.3963 49.7412 68.2521 49.0317 69.2548 48.6113C70.2576 48.1909 71.362 48.0787 72.4284 48.2887C73.4947 48.4988 74.4749 49.0218 75.2449 49.7914C76.0148 50.561 76.5398 51.5426 76.7534 52.6119C76.967 53.6812 76.8596 54.7901 76.4448 55.7981C76.0299 56.8061 75.3263 57.6678 74.4231 58.2742C73.5198 58.8806 72.4576 59.2042 71.3709 59.2042C70.6496 59.2125 69.9338 59.0764 69.2655 58.8038C68.5972 58.5312 67.9897 58.1277 67.4786 57.6168C66.9675 57.1059 66.563 56.4979 66.2887 55.8283C66.0144 55.1587 65.8759 54.4409 65.8813 53.7169ZM73.7532 53.7169C73.7403 53.2469 73.5895 52.791 73.3198 52.4065C73.0501 52.0219 72.6735 51.7257 72.237 51.5547C71.8004 51.3838 71.3234 51.3459 70.8654 51.4456C70.4075 51.5453 69.989 51.7783 69.6623 52.1154C69.3356 52.4525 69.1151 52.8787 69.0285 53.3409C68.9419 53.8031 68.9929 54.2806 69.1752 54.7138C69.3576 55.147 69.6631 55.5166 70.0536 55.7765C70.4441 56.0364 70.9023 56.175 71.3709 56.175C71.6918 56.1836 72.011 56.1254 72.3084 56.004C72.6058 55.8826 72.8748 55.7007 73.0987 55.4698C73.3225 55.2388 73.4962 54.9639 73.6089 54.6622C73.7215 54.3605 73.7707 54.0386 73.7532 53.7169Z" fill="white" fill-opacity="0.45"/>
<path d="M89.245 48.5194V58.3894C89.245 61.8817 86.531 63.358 83.7762 63.358C82.8063 63.4309 81.8351 63.2343 80.9692 62.7897C80.1032 62.3452 79.376 61.67 78.8672 60.838L81.5184 59.2998C81.7323 59.7334 82.073 60.0912 82.495 60.3252C82.917 60.5592 83.4001 60.6583 83.8798 60.6091C84.1863 60.6518 84.4985 60.6247 84.7932 60.5299C85.0879 60.4351 85.3576 60.275 85.5823 60.0614C85.8071 59.8479 85.9811 59.5864 86.0915 59.2962C86.2019 59.0061 86.2459 58.6947 86.2202 58.3852V57.435C85.8564 57.8818 85.3932 58.2368 84.8679 58.4715C84.3427 58.7061 83.7699 58.814 83.1955 58.7863C81.8289 58.7431 80.5327 58.1678 79.5813 57.1824C78.6298 56.1969 78.0978 54.8786 78.0978 53.5064C78.0978 52.1342 78.6298 50.8159 79.5813 49.8304C80.5327 48.845 81.8289 48.2697 83.1955 48.2265C83.7699 48.1988 84.3427 48.3067 84.8679 48.5413C85.3932 48.776 85.8564 49.131 86.2202 49.5778V48.5173L89.245 48.5194ZM86.2213 53.508C86.2422 53.0054 86.1127 52.5081 85.8496 52.0799C85.5864 51.6518 85.2016 51.3125 84.7447 51.1058C84.2878 50.899 83.7797 50.8342 83.2858 50.9196C82.7919 51.0051 82.3347 51.237 81.9732 51.5854C81.6117 51.9338 81.3624 52.3828 81.2573 52.8747C81.1522 53.3665 81.1962 53.8786 81.3836 54.3452C81.571 54.8117 81.8932 55.2113 82.3088 55.4925C82.7244 55.7736 83.2143 55.9236 83.7155 55.923C84.042 55.9458 84.3696 55.8998 84.6773 55.7879C84.985 55.676 85.266 55.5006 85.502 55.2731C85.7381 55.0456 85.924 54.771 86.0479 54.467C86.1718 54.163 86.2309 53.8363 86.2213 53.508Z" fill="white" fill-opacity="0.45"/>
<path d="M91.0047 53.7169C91.0004 52.6264 91.3186 51.559 91.9192 50.6501C92.5198 49.7412 93.3756 49.0317 94.3783 48.6113C95.381 48.1909 96.4855 48.0787 97.5518 48.2887C98.6182 48.4988 99.5984 49.0218 100.368 49.7914C101.138 50.561 101.663 51.5426 101.877 52.6119C102.091 53.6812 101.983 54.7901 101.568 55.7981C101.153 56.8061 100.45 57.6678 99.5466 58.2742C98.6433 58.8806 97.5811 59.2042 96.4944 59.2042C95.773 59.2125 95.0573 59.0764 94.389 58.8038C93.7207 58.5312 93.1132 58.1277 92.6021 57.6168C92.091 57.1059 91.6864 56.4979 91.4122 55.8283C91.1379 55.1587 90.9994 54.4409 91.0047 53.7169ZM98.8767 53.7169C98.8637 53.2469 98.713 52.791 98.4433 52.4065C98.1736 52.0219 97.797 51.7257 97.3604 51.5547C96.9239 51.3838 96.4468 51.3459 95.9889 51.4456C95.531 51.5453 95.1125 51.7783 94.7858 52.1154C94.4591 52.4525 94.2386 52.8787 94.152 53.3409C94.0654 53.8031 94.1164 54.2806 94.2987 54.7138C94.481 55.147 94.7866 55.5166 95.1771 55.7765C95.5676 56.0364 96.0258 56.175 96.4944 56.175C96.8153 56.1836 97.1345 56.1254 97.4319 56.004C97.7292 55.8826 97.9983 55.7007 98.2222 55.4698C98.446 55.2388 98.6197 54.9639 98.7324 54.6622C98.845 54.3605 98.8942 54.0386 98.8767 53.7169Z" fill="white" fill-opacity="0.45"/>
<path d="M103.433 45.7338C103.433 45.3637 103.542 45.0019 103.747 44.6942C103.952 44.3865 104.243 44.1467 104.584 44.0051C104.925 43.8635 105.3 43.8264 105.661 43.8986C106.023 43.9708 106.355 44.149 106.616 44.4107C106.877 44.6724 107.054 45.0058 107.126 45.3687C107.198 45.7317 107.161 46.1079 107.02 46.4498C106.879 46.7917 106.64 47.0839 106.333 47.2895C106.027 47.4951 105.666 47.6049 105.298 47.6049C104.805 47.6 104.333 47.4012 103.985 47.0514C103.636 46.7016 103.438 46.2285 103.433 45.7338ZM103.747 48.5194H106.855V58.9144H103.743L103.747 48.5194Z" fill="white" fill-opacity="0.45"/>
<path d="M120.273 53.7169C120.308 54.4039 120.209 55.0913 119.979 55.7394C119.749 56.3876 119.394 56.9838 118.934 57.4937C118.474 58.0037 117.918 58.4173 117.298 58.7109C116.678 59.0044 116.006 59.1721 115.322 59.2042C114.746 59.2358 114.17 59.1383 113.637 58.9189C113.103 58.6995 112.625 58.3637 112.236 57.9358V63.0714H109.129V48.5194H112.236V49.4959C112.625 49.0683 113.103 48.7328 113.637 48.5136C114.17 48.2944 114.746 48.1971 115.322 48.2286C116.007 48.2606 116.678 48.4282 117.298 48.7217C117.919 49.0153 118.475 49.429 118.935 49.9391C119.395 50.4492 119.75 51.0456 119.98 51.6939C120.209 52.3423 120.309 53.0298 120.273 53.7169ZM117.165 53.7169C117.153 53.2304 116.998 52.7583 116.72 52.3597C116.442 51.9611 116.053 51.6537 115.601 51.476C115.15 51.2982 114.656 51.2581 114.182 51.3605C113.708 51.4629 113.275 51.7034 112.936 52.0518C112.598 52.4002 112.369 52.8411 112.279 53.3192C112.189 53.7974 112.241 54.2916 112.43 54.74C112.618 55.1884 112.934 55.5711 113.338 55.8402C113.742 56.1092 114.216 56.2527 114.701 56.2527C115.034 56.2675 115.366 56.2116 115.676 56.0886C115.986 55.9655 116.267 55.7782 116.499 55.5387C116.732 55.2993 116.912 55.0132 117.026 54.6993C117.141 54.3853 117.188 54.0505 117.165 53.7169Z" fill="white" fill-opacity="0.45"/>
<path d="M129.861 55.7949C129.861 58.1857 127.791 59.2042 125.554 59.2042C124.65 59.2864 123.743 59.0946 122.949 58.6536C122.155 58.2126 121.511 57.5426 121.1 56.7304L123.792 55.1922C123.901 55.5676 124.135 55.8942 124.455 56.1174C124.775 56.3406 125.161 56.4469 125.55 56.4186C126.295 56.4186 126.668 56.1897 126.668 55.7749C126.668 54.6304 121.572 55.2342 121.572 51.6379C121.572 49.371 123.478 48.2286 125.632 48.2286C126.442 48.2029 127.244 48.3956 127.954 48.7868C128.665 49.178 129.258 49.7532 129.671 50.4525L127.02 51.8868C126.904 51.6145 126.71 51.3826 126.463 51.22C126.217 51.0573 125.928 50.9712 125.632 50.9722C125.094 50.9722 124.762 51.1822 124.762 51.5539C124.766 52.7394 129.861 51.9487 129.861 55.7949Z" fill="white" fill-opacity="0.45"/>
<path d="M141.212 48.5195V58.9145H138.105V57.9369C137.746 58.3683 137.291 58.7081 136.776 58.9286C136.262 59.1491 135.702 59.244 135.144 59.2053C133.051 59.2053 131.273 57.7091 131.273 54.9003V48.5195H134.38V54.4436C134.354 54.6911 134.382 54.9414 134.462 55.177C134.543 55.4126 134.673 55.6278 134.844 55.8077C135.016 55.9876 135.224 56.1278 135.455 56.2186C135.686 56.3094 135.934 56.3487 136.182 56.3336C137.321 56.3336 138.108 55.6689 138.108 54.1926V48.5226L141.212 48.5195Z" fill="white" fill-opacity="0.45"/>
<path d="M159.03 52.5316V58.9135H155.923V52.8014C155.923 51.7619 155.426 51.0973 154.432 51.0973C153.396 51.0973 152.815 51.8249 152.815 53.0513V58.9135H149.709V52.8014C149.709 51.7619 149.212 51.0973 148.217 51.0973C147.181 51.0973 146.601 51.8249 146.601 53.0513V58.9135H143.494V48.5185H146.601V49.474C146.924 49.0501 147.346 48.7139 147.831 48.4962C148.316 48.2785 148.848 48.1861 149.377 48.2276C149.909 48.2015 150.438 48.3141 150.914 48.5544C151.389 48.7948 151.794 49.1546 152.09 49.5989C152.434 49.1341 152.891 48.7645 153.416 48.5247C153.941 48.2849 154.519 48.1827 155.094 48.2276C157.472 48.2287 159.03 49.9328 159.03 52.5316Z" fill="white" fill-opacity="0.45"/>
<path d="M161.658 48.4554C162.932 48.4554 163.964 47.4193 163.964 46.1412C163.964 44.8631 162.932 43.827 161.658 43.827C160.384 43.827 159.352 44.8631 159.352 46.1412C159.352 47.4193 160.384 48.4554 161.658 48.4554Z" fill="white" fill-opacity="0.45"/>
</svg>
