<svg width="187" height="105" viewBox="0 0 187 105" fill="none" xmlns="http://www.w3.org/2000/svg">
<path d="M64.7001 46.4729H68.0766V60.1229H64.7001V46.4729ZM69.4229 54.9884C69.4229 51.6074 71.5267 49.581 74.6822 49.581C77.8378 49.581 79.9416 51.6074 79.9416 54.9884C79.9416 58.3694 77.9115 60.4169 74.6822 60.4169C71.453 60.4169 69.4229 58.4429 69.4229 54.9884ZM76.5966 54.9884C76.5966 53.1299 75.8708 52.038 74.7138 52.038C73.5568 52.038 72.8415 53.0879 72.8415 54.9884C72.8415 56.8889 73.5568 57.9284 74.7138 57.9284C75.8708 57.9284 76.6177 56.8889 76.6177 54.999L76.5966 54.9884ZM81.2879 60.8264H84.5487C84.6972 61.1769 84.9564 61.4692 85.2869 61.6588C85.6173 61.8484 86.0009 61.9248 86.379 61.8764C87.6727 61.8764 88.3459 61.1834 88.3459 60.1544V58.2644H88.3565C88.0778 58.853 87.6272 59.3435 87.064 59.6715C86.5007 59.9994 85.8512 60.1495 85.2009 60.1019C82.729 60.1019 81.0881 58.2224 81.0881 54.9884C81.0881 51.7544 82.6554 49.7384 85.2955 49.7384C85.9625 49.7028 86.6242 49.8746 87.1893 50.23C87.7545 50.5854 88.1953 51.107 88.4511 51.7229H88.3565V49.8225H91.7014V60.0494C91.7014 62.5169 89.5135 64.0604 86.2948 64.0604C83.3706 64.0499 81.4983 62.7164 81.309 60.8369L81.2879 60.8264ZM88.3565 54.9884C88.3565 53.3399 87.5991 52.3005 86.4 52.3005C85.2009 52.3005 84.4646 53.3504 84.4646 54.9884C84.4646 56.6264 85.1903 57.5924 86.4 57.5924C87.6096 57.5924 88.3565 56.6999 88.3565 54.9884ZM93.0372 54.9884C93.0372 51.6074 95.141 49.581 98.2965 49.581C101.452 49.581 103.556 51.6074 103.556 54.9884C103.556 58.3694 101.515 60.4169 98.2965 60.4169C95.0778 60.4169 93.0583 58.4429 93.0583 54.9884H93.0372ZM100.211 54.9884C100.211 53.1299 99.4746 52.038 98.3281 52.038C97.1816 52.038 96.4558 53.0879 96.4558 54.9884C96.4558 56.8889 97.1711 57.9284 98.3281 57.9284C99.4852 57.9284 100.232 56.8889 100.232 54.999L100.211 54.9884ZM104.923 47.334C104.909 46.9906 104.997 46.6508 105.178 46.3581C105.358 46.0654 105.622 45.8333 105.936 45.6916C106.249 45.5499 106.598 45.5052 106.937 45.5631C107.277 45.621 107.591 45.7789 107.84 46.0166C108.088 46.2542 108.26 46.5607 108.333 46.8966C108.406 47.2324 108.376 47.5824 108.248 47.9013C108.12 48.2203 107.899 48.4937 107.614 48.6863C107.329 48.879 106.993 48.9821 106.648 48.9825C106.428 48.988 106.209 48.9499 106.004 48.8704C105.799 48.7908 105.612 48.6714 105.453 48.519C105.295 48.3666 105.168 48.1843 105.081 47.9827C104.993 47.7811 104.947 47.5641 104.944 47.3445L104.923 47.334ZM104.923 49.8119H108.342V60.1649H104.976L104.923 49.8119ZM120.638 54.9884C120.638 58.3589 119.123 60.3119 116.546 60.3119C115.887 60.3526 115.23 60.1901 114.666 59.8465C114.102 59.5029 113.657 58.9946 113.391 58.3904H113.328V63.4934H109.951V49.8435H113.307V51.6914H113.37C113.626 51.0754 114.067 50.5533 114.632 50.1963C115.196 49.8393 115.858 49.6647 116.525 49.6965C119.176 49.6755 120.701 51.618 120.701 54.999L120.638 54.9884ZM117.199 54.9884C117.199 53.3504 116.431 52.2899 115.242 52.2899C114.053 52.2899 113.307 53.3399 113.296 54.9884C113.286 56.6369 114.053 57.6764 115.242 57.6764C116.431 57.6764 117.262 56.6999 117.262 54.999L117.199 54.9884ZM126.402 49.5704C129.232 49.5704 130.988 50.904 131.009 53.046H127.928C127.928 52.3005 127.307 51.8384 126.381 51.8384C125.456 51.8384 125.014 52.1955 125.014 52.731C125.014 53.2665 125.403 53.4345 126.181 53.592L128.348 54.0329C130.452 54.4739 131.293 55.3139 131.293 56.8784C131.293 58.9784 129.348 60.4064 126.455 60.4064C123.562 60.4064 121.679 59.0204 121.543 56.9099H124.814C124.909 57.6764 125.519 58.1279 126.507 58.1279C127.496 58.1279 127.959 57.8129 127.959 57.2564C127.959 56.6999 127.643 56.6054 126.834 56.4374L124.877 56.0279C122.847 55.5974 121.785 54.5369 121.785 52.9514C121.848 50.8935 123.615 49.581 126.465 49.581L126.402 49.5704ZM142.601 60.1544H139.33V58.2119H139.267C139.083 58.8599 138.685 59.4262 138.136 59.8174C137.587 60.2087 136.921 60.4017 136.248 60.3644C135.739 60.381 135.233 60.29 134.762 60.0975C134.292 59.905 133.867 59.6153 133.517 59.2474C133.166 58.8796 132.897 58.4418 132.728 57.963C132.559 57.4842 132.493 56.975 132.535 56.4689V49.8225H135.911V55.7444C135.911 56.9624 136.553 57.6239 137.605 57.6239C137.851 57.6221 138.095 57.5674 138.319 57.4636C138.543 57.3598 138.741 57.2092 138.902 57.0221C139.062 56.835 139.181 56.6157 139.249 56.3789C139.318 56.1422 139.334 55.8936 139.298 55.6499V49.8225H142.664L142.601 60.1544ZM144.231 49.8119H147.513V51.807H147.587C147.768 51.1679 148.157 50.6068 148.691 50.2116C149.226 49.8164 149.877 49.6094 150.543 49.6229C151.21 49.565 151.876 49.7578 152.409 50.1636C152.942 50.5695 153.304 51.1592 153.425 51.8174H153.572C153.782 51.1557 154.205 50.5817 154.776 50.1849C155.347 49.788 156.033 49.5905 156.727 49.6229C157.189 49.6054 157.649 49.6854 158.078 49.8577C158.507 50.03 158.894 50.2907 159.215 50.6227C159.536 50.9548 159.782 51.3507 159.939 51.7846C160.096 52.2184 160.159 52.6805 160.125 53.1405V60.1649H156.727V54.0014C156.727 52.9514 156.233 52.3634 155.276 52.3634C155.064 52.36 154.853 52.4024 154.659 52.4877C154.464 52.5731 154.291 52.6994 154.15 52.8579C154.009 53.0165 153.904 53.2036 153.843 53.4064C153.781 53.6092 153.764 53.823 153.793 54.0329V60.1649H150.574V53.97C150.574 52.92 150.059 52.3634 149.133 52.3634C148.919 52.3617 148.706 52.4059 148.51 52.4929C148.314 52.5798 148.139 52.7077 147.996 52.8678C147.854 53.0279 147.747 53.2166 147.684 53.4212C147.621 53.6258 147.602 53.8415 147.629 54.0539V60.1649H144.252L144.231 49.8119Z" fill="white" fill-opacity="0.45"/>
<path d="M58.0207 47.3655C58.0208 45.2757 57.3886 43.2346 56.2069 41.5095C55.0252 39.7844 53.3492 38.4558 51.3982 37.6977C49.4473 36.9396 47.3125 36.7873 45.2734 37.2609C43.2344 37.7344 41.3861 38.8117 39.9707 40.3515H26.8435V68.0085H54.5601V55.083C55.6479 54.1117 56.5184 52.9224 57.1147 51.5926C57.711 50.2628 58.0197 48.8225 58.0207 47.3655ZM52.6878 47.3655C52.6898 48.367 52.3943 49.3465 51.8384 50.1801C51.2826 51.0138 50.4915 51.6641 49.5653 52.0488C48.639 52.4334 47.6193 52.5352 46.6351 52.3411C45.651 52.147 44.7466 51.6658 44.0365 50.9584C43.3264 50.251 42.8425 49.3493 42.646 48.3673C42.4495 47.3852 42.5493 46.3671 42.9327 45.4417C43.3162 44.5163 43.966 43.7253 44.8 43.1687C45.6339 42.6121 46.6146 42.315 47.6178 42.315C48.9606 42.315 50.2486 42.8468 51.1991 43.7936C52.1496 44.7405 52.685 46.0251 52.6878 47.3655ZM49.2271 62.685H32.1764V45.675H37.3726C37.2723 46.2331 37.2195 46.7986 37.2149 47.3655C37.2176 50.1188 38.3146 52.7585 40.2649 54.7054C42.2152 56.6523 44.8596 57.7473 47.6178 57.75C48.157 57.7472 48.6951 57.7015 49.2271 57.6135V62.685Z" fill="white" fill-opacity="0.45"/>
</svg>
