<svg width="186" height="104" viewBox="0 0 186 104" fill="none" xmlns="http://www.w3.org/2000/svg">
<path d="M71.0185 59.6856C70.3962 59.7191 69.7807 59.5432 69.2713 59.1864C69.0584 59.0295 68.8872 58.8235 68.7723 58.5861C68.6575 58.3488 68.6025 58.0872 68.6122 57.824V48.1832C68.6071 48.1424 68.6114 48.1009 68.6249 48.062C68.6383 48.0231 68.6605 47.9878 68.6898 47.9587C68.719 47.9296 68.7546 47.9076 68.7937 47.8942C68.8328 47.8808 68.8745 47.8765 68.9156 47.8816H70.6733C70.872 47.8816 70.9662 47.9856 70.9662 48.1832V57.0752C70.9662 57.4704 71.1441 57.668 71.5102 57.668C71.6655 57.6743 71.8208 57.6568 71.9706 57.616C72.1798 57.616 72.2949 57.6784 72.3054 57.8656L72.4623 59.1656C72.4699 59.2035 72.4691 59.2425 72.4602 59.2801C72.4513 59.3177 72.4344 59.353 72.4106 59.3836C72.3868 59.4141 72.3567 59.4392 72.3223 59.4572C72.2879 59.4753 72.25 59.4857 72.2112 59.488C71.8262 59.6144 71.4239 59.681 71.0185 59.6856Z" fill="white" fill-opacity="0.45"/>
<path d="M80.9054 58.5728C80.0222 59.2982 78.9124 59.695 77.7667 59.695C76.6211 59.695 75.5112 59.2982 74.628 58.5728C73.8518 57.7938 73.4163 56.7417 73.4163 55.6452C73.4163 54.5487 73.8518 53.4966 74.628 52.7176C75.5129 51.996 76.6221 51.6016 77.7667 51.6016C78.9113 51.6016 80.0205 51.996 80.9054 52.7176C81.6638 53.5037 82.0872 54.5508 82.0872 55.64C82.0872 56.7292 81.6638 57.7762 80.9054 58.5624V58.5728ZM76.2811 57.2C76.6909 57.569 77.2242 57.7734 77.7772 57.7734C78.3302 57.7734 78.8635 57.569 79.2733 57.2C79.6443 56.776 79.8486 56.2331 79.8486 55.6712C79.8486 55.1093 79.6443 54.5664 79.2733 54.1424C78.8635 53.7733 78.3302 53.5689 77.7772 53.5689C77.2242 53.5689 76.6909 53.7733 76.2811 54.1424C75.9101 54.5664 75.7058 55.1093 75.7058 55.6712C75.7058 56.2331 75.9101 56.776 76.2811 57.2Z" fill="white" fill-opacity="0.45"/>
<path d="M91.7654 51.8648C91.9642 51.8648 92.0584 51.9688 92.0584 52.1664V59.6232C92.0766 60.1265 91.9819 60.6275 91.781 61.0898C91.5801 61.5521 91.2782 61.9642 90.897 62.296C90.0511 63.013 88.9631 63.3846 87.8525 63.336C86.8493 63.371 85.8595 63.0987 85.0172 62.556C84.6575 62.3212 84.3502 62.0154 84.1144 61.6576C83.8787 61.2997 83.7194 60.8975 83.6466 60.476C83.6466 60.268 83.6466 60.1744 83.9291 60.1744H85.6868C85.7614 60.1769 85.8337 60.2008 85.895 60.2433C85.9562 60.2857 86.0038 60.3448 86.032 60.4136C86.146 60.7294 86.3733 60.9924 86.6702 61.152C87.0321 61.3376 87.4349 61.4305 87.842 61.4224C88.0877 61.4357 88.3335 61.4003 88.5653 61.3182C88.797 61.236 89.01 61.1088 89.1917 60.944C89.3577 60.7715 89.4868 60.5674 89.5713 60.344C89.6558 60.1206 89.694 59.8824 89.6834 59.644V58.9888C89.0541 59.4489 88.2881 59.6868 87.5072 59.6648C86.9607 59.6845 86.4157 59.5943 85.9052 59.3995C85.3946 59.2047 84.9288 58.9093 84.5359 58.5312C83.7816 57.7555 83.36 56.7188 83.36 55.64C83.36 54.5611 83.7816 53.5245 84.5359 52.7488C84.9307 52.3739 85.397 52.0814 85.9073 51.8885C86.4176 51.6956 86.9616 51.6062 87.5072 51.6256C88.3107 51.6045 89.0973 51.8578 89.7357 52.3432V52.1768C89.7309 52.1369 89.7351 52.0965 89.748 52.0584C89.7608 52.0204 89.7821 51.9857 89.8101 51.9568C89.8382 51.9279 89.8723 51.9056 89.9101 51.8915C89.9479 51.8774 89.9884 51.8718 90.0287 51.8752L91.7654 51.8648ZM87.706 57.8136C87.9756 57.8219 88.2436 57.7712 88.4913 57.6652C88.739 57.5592 88.9602 57.4003 89.1394 57.2C89.4872 56.7534 89.6759 56.2047 89.6759 55.64C89.6759 55.0752 89.4872 54.5265 89.1394 54.08C88.9608 53.8823 88.741 53.7259 88.4951 53.6217C88.2493 53.5175 87.9836 53.468 87.7165 53.4768C87.4438 53.4682 87.1726 53.5187 86.9215 53.6247C86.6704 53.7306 86.4454 53.8895 86.2622 54.0904C85.8769 54.5175 85.6742 55.0771 85.6972 55.6504C85.6784 56.218 85.8765 56.7717 86.2517 57.2C86.4354 57.4003 86.6604 57.5588 86.9114 57.6647C87.1624 57.7706 87.4335 57.8214 87.706 57.8136Z" fill="white" fill-opacity="0.45"/>
<path d="M101.087 58.5727C100.202 59.2944 99.0933 59.6888 97.9487 59.6888C96.8041 59.6888 95.6949 59.2944 94.81 58.5727C94.0509 57.7848 93.6272 56.7361 93.6272 55.6451C93.6272 54.5542 94.0509 53.5054 94.81 52.7175C95.6957 51.9978 96.8046 51.6046 97.9487 51.6046C99.0927 51.6046 100.202 51.9978 101.087 52.7175C101.846 53.5037 102.269 54.5508 102.269 55.6399C102.269 56.7291 101.846 57.7762 101.087 58.5623V58.5727ZM96.4526 57.1999C96.6531 57.3896 96.8896 57.5378 97.1482 57.636C97.4068 57.7342 97.6824 57.7804 97.9591 57.7719C98.2341 57.779 98.5078 57.7321 98.7645 57.634C99.0212 57.5358 99.2559 57.3883 99.4553 57.1999C99.8202 56.7731 100.02 56.2313 100.02 55.6711C100.02 55.111 99.8202 54.5691 99.4553 54.1423C99.2559 53.9539 99.0212 53.8064 98.7645 53.7083C98.5078 53.6101 98.2341 53.5633 97.9591 53.5703C97.6824 53.5619 97.4068 53.6081 97.1482 53.7063C96.8896 53.8044 96.6531 53.9527 96.4526 54.1423C96.0877 54.5691 95.8873 55.111 95.8873 55.6711C95.8873 56.2313 96.0877 56.7731 96.4526 57.1999Z" fill="white" fill-opacity="0.45"/>
<path d="M106.047 50.0968C105.77 50.3374 105.415 50.4701 105.047 50.4701C104.68 50.4701 104.325 50.3374 104.048 50.0968C103.923 49.9792 103.823 49.8373 103.755 49.6799C103.686 49.5226 103.651 49.353 103.651 49.1816C103.651 49.0102 103.686 48.8406 103.755 48.6833C103.823 48.5259 103.923 48.384 104.048 48.2664C104.328 48.0318 104.682 47.9031 105.047 47.9031C105.413 47.9031 105.767 48.0318 106.047 48.2664C106.172 48.384 106.272 48.5259 106.34 48.6833C106.408 48.8406 106.444 49.0102 106.444 49.1816C106.444 49.353 106.408 49.5226 106.34 49.6799C106.272 49.8373 106.172 49.9792 106.047 50.0968ZM106.266 59.6856C105.644 59.7159 105.03 59.5403 104.519 59.1864C104.309 59.0272 104.141 58.8205 104.028 58.5835C103.916 58.3465 103.861 58.0861 103.87 57.824V52.1664C103.865 52.1256 103.87 52.0841 103.883 52.0453C103.897 52.0064 103.919 51.971 103.948 51.9419C103.977 51.9129 104.013 51.8908 104.052 51.8774C104.091 51.8641 104.133 51.8597 104.174 51.8648H105.932C106.13 51.8648 106.224 51.9688 106.224 52.1664V57.0752C106.224 57.4704 106.402 57.668 106.758 57.668C106.917 57.6737 107.075 57.6561 107.229 57.616C107.438 57.616 107.553 57.6784 107.564 57.8656L107.721 59.1656C107.728 59.2035 107.727 59.2426 107.718 59.2802C107.71 59.3178 107.693 59.353 107.669 59.3836C107.645 59.4141 107.615 59.4393 107.581 59.4573C107.546 59.4753 107.508 59.4858 107.47 59.488C107.081 59.6151 106.675 59.6818 106.266 59.6856Z" fill="white" fill-opacity="0.45"/>
<path d="M114.186 51.6152C114.735 51.5937 115.283 51.682 115.797 51.8749C116.311 52.0679 116.781 52.3615 117.179 52.7384C117.918 53.5277 118.33 54.5664 118.33 55.6452C118.33 56.724 117.918 57.7627 117.179 58.552C116.783 58.9323 116.314 59.2288 115.799 59.4236C115.285 59.6185 114.736 59.7076 114.186 59.6856C113.403 59.7029 112.635 59.4656 112 59.0096V62.764C112 62.9616 111.895 63.0552 111.696 63.0552H109.939C109.899 63.0627 109.857 63.0603 109.818 63.0483C109.779 63.0363 109.744 63.015 109.715 62.9864C109.686 62.9577 109.665 62.9224 109.653 62.8837C109.641 62.845 109.638 62.8039 109.646 62.764V54.236C109.658 54.1526 109.651 54.0675 109.624 53.9875C109.597 53.9074 109.552 53.8347 109.492 53.7751C109.432 53.7155 109.359 53.6706 109.278 53.6441C109.198 53.6176 109.112 53.6102 109.028 53.6224H108.683C108.453 53.6224 108.338 53.5392 108.338 53.3728V52.1456C108.332 52.0697 108.353 51.9942 108.397 51.9317C108.441 51.8693 108.505 51.8236 108.579 51.8024C108.94 51.6717 109.323 51.6082 109.708 51.6152C110.092 51.5814 110.478 51.6624 110.815 51.8477C111.152 52.0329 111.427 52.3141 111.602 52.6552C111.939 52.3164 112.342 52.0494 112.786 51.8705C113.231 51.6917 113.707 51.6048 114.186 51.6152ZM112.554 57.2C112.741 57.3938 112.965 57.548 113.213 57.6534C113.461 57.7588 113.728 57.8131 113.998 57.8131C114.268 57.8131 114.535 57.7588 114.783 57.6534C115.031 57.548 115.255 57.3938 115.442 57.2C115.835 56.7644 116.041 56.1935 116.017 55.6088C116.045 55.0237 115.838 54.4515 115.442 54.0176C115.255 53.8238 115.031 53.6696 114.783 53.5642C114.535 53.4589 114.268 53.4045 113.998 53.4045C113.728 53.4045 113.461 53.4589 113.213 53.5642C112.965 53.6696 112.741 53.8238 112.554 54.0176C112.174 54.4592 111.975 55.0278 112 55.6088C111.978 56.1894 112.176 56.7569 112.554 57.2Z" fill="white" fill-opacity="0.45"/>
<path d="M123.268 59.6856C122.328 59.7239 121.397 59.5006 120.579 59.0408C120.25 58.8442 119.971 58.5766 119.761 58.258C119.551 57.9393 119.415 57.5777 119.365 57.2C119.365 56.992 119.438 56.888 119.669 56.888H121.206C121.28 56.8908 121.351 56.9137 121.412 56.954C121.472 56.9944 121.521 57.0507 121.552 57.1168C121.771 57.6784 122.347 57.9592 123.268 57.9592C123.589 57.9737 123.909 57.9095 124.199 57.772C124.299 57.727 124.385 57.6558 124.448 57.5661C124.51 57.4763 124.547 57.3714 124.554 57.2624C124.554 56.992 124.387 56.8048 124.052 56.68C123.655 56.5486 123.245 56.4614 122.828 56.42C122.335 56.3644 121.846 56.2776 121.363 56.16C120.895 56.0545 120.468 55.8118 120.139 55.4632C119.946 55.2262 119.803 54.9522 119.721 54.6582C119.638 54.3641 119.617 54.0563 119.659 53.754C119.702 53.4516 119.806 53.161 119.966 52.9004C120.126 52.6398 120.338 52.4148 120.589 52.2392C121.343 51.7616 122.228 51.529 123.121 51.5736C123.986 51.5445 124.841 51.7571 125.59 52.1872C125.892 52.3571 126.152 52.5919 126.351 52.8744C126.55 53.1568 126.683 53.4799 126.741 53.82C126.741 54.028 126.647 54.132 126.459 54.132H124.91C124.845 54.1358 124.78 54.12 124.724 54.0866C124.668 54.0532 124.624 54.0037 124.596 53.9448C124.493 53.6984 124.298 53.5011 124.052 53.3936C123.775 53.2494 123.465 53.1778 123.152 53.1856C122.846 53.169 122.54 53.2298 122.263 53.3624C122.166 53.3997 122.082 53.4653 122.022 53.5506C121.962 53.6358 121.93 53.7369 121.928 53.8408C121.935 53.983 121.987 54.1193 122.078 54.2298C122.168 54.3402 122.292 54.4189 122.431 54.4544C122.832 54.6049 123.25 54.7095 123.676 54.7664C124.165 54.8304 124.65 54.9206 125.13 55.0368C125.599 55.1423 126.025 55.385 126.354 55.7336C126.53 55.9256 126.666 56.1504 126.754 56.395C126.842 56.6395 126.88 56.899 126.867 57.1584C126.876 57.5179 126.791 57.8736 126.62 58.1907C126.45 58.5079 126.199 58.7757 125.894 58.968C125.112 59.4668 124.196 59.7171 123.268 59.6856Z" fill="white" fill-opacity="0.45"/>
<path d="M137.925 59.1655C137.931 59.2025 137.93 59.2402 137.921 59.2765C137.912 59.3129 137.896 59.347 137.873 59.3771C137.851 59.4071 137.823 59.4324 137.79 59.4514C137.758 59.4705 137.722 59.4829 137.685 59.488C137.303 59.6119 136.904 59.6785 136.503 59.6855C136.105 59.7265 135.703 59.6647 135.337 59.5062C134.97 59.3477 134.651 59.0978 134.41 58.7808C133.671 59.4123 132.715 59.7364 131.742 59.6855C131.29 59.7062 130.839 59.6327 130.417 59.4697C129.996 59.3068 129.613 59.0579 129.294 58.7391C128.977 58.4052 128.731 58.011 128.571 57.5803C128.411 57.1497 128.34 56.6913 128.363 56.2327V52.1663C128.363 51.9687 128.457 51.8647 128.656 51.8647H130.413C130.612 51.8647 130.706 51.9687 130.706 52.1663V55.9207C130.687 56.3885 130.848 56.8459 131.156 57.1999C131.31 57.3621 131.497 57.4897 131.705 57.574C131.912 57.6583 132.135 57.6974 132.359 57.6888C132.589 57.6987 132.818 57.6634 133.033 57.5849C133.249 57.5063 133.446 57.3861 133.615 57.2311C133.774 57.0678 133.898 56.8737 133.979 56.6609C134.06 56.448 134.097 56.2209 134.086 55.9935V52.1663C134.086 51.9687 134.18 51.8647 134.379 51.8647H136.157C136.356 51.8647 136.45 51.9687 136.45 52.1663V57.0647C136.45 57.4703 136.628 57.668 136.973 57.668C137.135 57.6742 137.298 57.6567 137.455 57.616C137.494 57.6049 137.536 57.6029 137.576 57.6102C137.617 57.6174 137.655 57.6336 137.688 57.6576C137.721 57.6816 137.749 57.7128 137.768 57.7488C137.787 57.7848 137.798 57.8247 137.8 57.8655L137.925 59.1655Z" fill="white" fill-opacity="0.45"/>
<path d="M154.55 59.1656C154.559 59.2028 154.56 59.2417 154.553 59.2793C154.545 59.3169 154.529 59.3524 154.506 59.3833C154.483 59.4141 154.454 59.4394 154.42 59.4576C154.386 59.4757 154.348 59.4861 154.309 59.488C153.921 59.6137 153.515 59.6803 153.106 59.6856C152.484 59.7175 151.869 59.5418 151.359 59.1864C151.138 59.0342 150.959 58.8302 150.837 58.5925C150.715 58.3549 150.653 58.0909 150.658 57.824V55.38C150.68 54.9136 150.523 54.4564 150.219 54.1008C150.072 53.9383 149.891 53.8101 149.688 53.7256C149.485 53.6411 149.266 53.6023 149.047 53.612C148.849 53.6046 148.652 53.6419 148.471 53.7212C148.29 53.8004 148.129 53.9196 148.001 54.0696C147.724 54.4181 147.583 54.8536 147.603 55.2968V59.1344C147.603 59.332 147.509 59.436 147.31 59.436H145.542C145.501 59.4411 145.459 59.4367 145.42 59.4234C145.381 59.41 145.345 59.3879 145.316 59.3589C145.287 59.3298 145.265 59.2944 145.251 59.2555C145.238 59.2166 145.233 59.1752 145.239 59.1344V55.38C145.261 54.9187 145.117 54.4647 144.831 54.1008C144.703 53.9479 144.543 53.8249 144.362 53.7404C144.181 53.6559 143.984 53.6121 143.784 53.612C143.571 53.6034 143.358 53.6398 143.16 53.7186C142.961 53.7975 142.782 53.9171 142.633 54.0696C142.334 54.407 142.18 54.8477 142.204 55.2968V59.1344C142.21 59.1752 142.205 59.2166 142.192 59.2555C142.178 59.2944 142.156 59.3298 142.127 59.3589C142.098 59.3879 142.062 59.41 142.023 59.4234C141.984 59.4367 141.942 59.4411 141.901 59.436H140.196C139.997 59.436 139.903 59.332 139.903 59.1344V54.236C139.915 54.1526 139.908 54.0675 139.881 53.9874C139.854 53.9074 139.809 53.8347 139.749 53.7751C139.689 53.7154 139.616 53.6706 139.536 53.6441C139.455 53.6176 139.369 53.6102 139.285 53.6224H138.94C138.71 53.6224 138.595 53.5392 138.595 53.3728V52.1456C138.59 52.0697 138.61 51.9942 138.654 51.9317C138.698 51.8693 138.762 51.8236 138.836 51.8024C139.197 51.6716 139.581 51.6082 139.966 51.6152C140.335 51.5839 140.706 51.6571 141.036 51.8264C141.365 51.9957 141.64 52.2542 141.828 52.572C142.181 52.2394 142.599 51.9828 143.056 51.8182C143.513 51.6536 144 51.5845 144.485 51.6152C144.957 51.5923 145.427 51.6802 145.858 51.8718C146.288 52.0633 146.668 52.3531 146.965 52.7176C147.311 52.3435 147.737 52.0506 148.211 51.8599C148.685 51.6693 149.195 51.5857 149.706 51.6152C150.163 51.594 150.619 51.6671 151.046 51.83C151.472 51.9929 151.861 52.242 152.186 52.5616C152.503 52.8949 152.75 53.2889 152.91 53.7198C153.07 54.1506 153.14 54.6093 153.117 55.068V57.0752C153.117 57.4704 153.295 57.668 153.629 57.668C153.792 57.6755 153.954 57.658 154.111 57.616C154.327 57.616 154.442 57.6992 154.456 57.8656L154.55 59.1656Z" fill="white" fill-opacity="0.45"/>
<path d="M31.8684 50.5128C32.6403 47.4289 34.4279 44.6903 36.9467 42.7331C39.4655 40.7759 42.5706 39.7127 45.7677 39.7127C48.9647 39.7127 52.0698 40.7759 54.5886 42.7331C57.1074 44.6903 58.895 47.4289 59.6669 50.5128H58.4114C56.2935 50.4818 54.219 51.111 52.4793 52.312C52.3789 52.3843 52.274 52.4503 52.1654 52.5096H52.0189C51.9103 52.4503 51.8055 52.3843 51.7051 52.312C49.9499 51.1388 47.8828 50.5122 45.7677 50.5122C43.6526 50.5122 41.5855 51.1388 39.8303 52.312C39.7299 52.3843 39.625 52.4503 39.5164 52.5096H39.3699C39.2613 52.4503 39.1565 52.3843 39.0561 52.312C37.3163 51.111 35.2418 50.4818 33.1239 50.5128H31.8684ZM56.1516 57.0336C56.7961 56.5347 57.5948 56.2737 58.4114 56.2952H60.0959V52.9568H58.4114C56.9731 52.9395 55.5676 53.3846 54.4044 54.2256C53.7497 54.7054 52.9578 54.9642 52.1445 54.9642C51.3312 54.9642 50.5392 54.7054 49.8846 54.2256C48.6918 53.4002 47.2733 52.9578 45.82 52.9578C44.3666 52.9578 42.9481 53.4002 41.7553 54.2256C41.1007 54.7054 40.3088 54.9642 39.4955 54.9642C38.6822 54.9642 37.8902 54.7054 37.2356 54.2256C36.058 53.3738 34.6324 52.9282 33.1762 52.9568H31.4395V56.2952H33.1239C33.9405 56.2737 34.7393 56.5347 35.3838 57.0336C36.5744 57.8595 37.9913 58.3024 39.4432 58.3024C40.895 58.3024 42.3119 57.8595 43.5026 57.0336C44.1479 56.5362 44.9461 56.2754 45.7624 56.2952C46.5793 56.2719 47.3786 56.5331 48.0223 57.0336C49.2151 57.859 50.6336 58.3015 52.0869 58.3015C53.5403 58.3015 54.9588 57.859 56.1516 57.0336ZM56.1516 63.0032C56.7961 62.5043 57.5948 62.2433 58.4114 62.2648H60.0959V58.9264H58.4114C56.9731 58.9091 55.5676 59.3542 54.4044 60.1952C53.7497 60.675 52.9578 60.9338 52.1445 60.9338C51.3312 60.9338 50.5392 60.675 49.8846 60.1952C48.6918 59.3698 47.2733 58.9274 45.82 58.9274C44.3666 58.9274 42.9481 59.3698 41.7553 60.1952C41.1007 60.675 40.3088 60.9338 39.4955 60.9338C38.6822 60.9338 37.8902 60.675 37.2356 60.1952C36.058 59.3434 34.6324 58.8978 33.1762 58.9264H31.4395V62.2648H33.1239C33.9405 62.2433 34.7393 62.5043 35.3838 63.0032C36.5744 63.8291 37.9913 64.272 39.4432 64.272C40.895 64.272 42.3119 63.8291 43.5026 63.0032C44.1479 62.5058 44.9461 62.245 45.7624 62.2648C46.5793 62.2416 47.3786 62.5027 48.0223 63.0032C49.2151 63.8286 50.6336 64.2711 52.0869 64.2711C53.5403 64.2711 54.9588 63.8286 56.1516 63.0032Z" fill="white" fill-opacity="0.45"/>
</svg>
