<svg width="47" height="47" viewBox="0 0 47 47" fill="none" xmlns="http://www.w3.org/2000/svg">
<circle cx="23.5" cy="23.5" r="23.5" fill="#FFA155" fill-opacity="0.1"/>
<g clip-path="url(#clip0_0_984)">
<path d="M33.7289 26.6041C33.7288 26.6041 33.7288 26.6041 33.7289 26.6041L33.2055 26.302C31.4748 25.3028 31.4704 22.6999 33.2055 21.6981L33.7289 21.396C34.4005 21.0082 34.6313 20.1465 34.2436 19.475L32.5405 16.5251C32.1528 15.8536 31.2911 15.6229 30.6195 16.0104L30.0985 16.3112C28.3796 17.3035 26.1092 16.0278 26.1092 14.0131V13.4062C26.1092 12.6308 25.4784 12 24.703 12H21.2967C20.5213 12 19.8904 12.6308 19.8904 13.4062V14.013C19.8904 16.0283 17.6196 17.3032 15.9011 16.3111L15.3801 16.0103C14.707 15.6216 13.8478 15.8519 13.4591 16.525L11.756 19.4749C11.3683 20.1464 11.5991 21.0081 12.2707 21.3959L12.794 21.698C14.5247 22.6972 14.5292 25.3001 12.794 26.3019L12.2706 26.604C11.5991 26.9917 11.3682 27.8535 11.7559 28.5249L13.4591 31.4749C13.8468 32.1464 14.7085 32.3774 15.38 31.9896L15.9011 31.6887C17.6208 30.696 19.8904 31.9747 19.8904 33.9869V34.5938C19.8904 35.3692 20.5212 36 21.2966 36H24.7029C25.4783 36 26.1091 35.3692 26.1091 34.5938V33.987C26.1091 31.9719 28.3798 30.6967 30.0984 31.6889L30.6195 31.9897C31.291 32.3774 32.1528 32.1465 32.5405 31.475L34.2436 28.5251C34.6322 27.852 34.402 26.9927 33.7289 26.6041ZM31.3226 30.7718L30.8015 30.471C28.15 28.9401 24.7029 30.8845 24.7029 33.987V34.5938H21.2966V33.987C21.2966 30.8807 17.846 28.942 15.1979 30.471L14.6769 30.7718L12.9737 27.8219L13.4971 27.5198C14.7357 26.8046 15.5031 25.4627 15.4998 24.0169V24V23.9823C15.5031 22.5374 14.7357 21.1954 13.4971 20.4803L12.9738 20.1781L14.6769 17.2282L15.1979 17.529C17.8494 19.06 21.2966 17.1155 21.2966 14.013V13.4062H24.7029V14.013C24.7029 17.0867 28.1251 19.0741 30.8015 17.529L31.3226 17.2282L33.0258 20.1781L32.5024 20.4802C29.8302 22.023 29.834 25.9792 32.5024 27.5198L33.0258 27.8219L31.3226 30.7718Z" fill="#FFA155"/>
<path d="M22.9997 17.9707C19.6751 17.9707 16.9704 20.6754 16.9704 24C16.9704 27.3245 19.6751 30.0292 22.9997 30.0292C26.3243 30.0292 29.0289 27.3245 29.0289 24C29.0289 20.6754 26.3243 17.9707 22.9997 17.9707ZM22.9997 28.623C20.4505 28.623 18.3766 26.5491 18.3766 24C18.3766 21.4508 20.4505 19.377 22.9997 19.377C25.5489 19.377 27.6227 21.4508 27.6227 24C27.6227 26.5491 25.5489 28.623 22.9997 28.623Z" fill="#444CFC"/>
<path d="M24.6239 22.3651L22.2432 24.1322L21.4692 23.3075C21.2034 23.0243 20.7584 23.0102 20.4753 23.276C20.1921 23.5417 20.178 23.9867 20.4438 24.2698L21.6465 25.5513C21.891 25.8119 22.2918 25.8474 22.5782 25.6348L25.462 23.4943C25.7738 23.2628 25.839 22.8224 25.6075 22.5106C25.3761 22.1989 24.9357 22.1337 24.6239 22.3651Z" fill="#444CFC"/>
</g>
<defs>
<clipPath id="clip0_0_984">
<rect width="24" height="24" fill="white" transform="translate(11 12)"/>
</clipPath>
</defs>
</svg>
